<svg xmlns="http://www.w3.org/2000/svg" width="40" height="34.667" viewBox="0 0 40 34.667">
  <path id="camera" d="M-14.286-13.429a6,6,0,0,0-6,6,6,6,0,0,0,6,6,6,6,0,0,0,6-6A6,6,0,0,0-14.286-13.429ZM.381-22.1H-4.286l-1.063-2.833a4.166,4.166,0,0,0-3.6-2.5H-19.619a4.166,4.166,0,0,0-3.6,2.5L-24.286-22.1h-4.667a5.344,5.344,0,0,0-5.333,5.333V1.9a5.344,5.344,0,0,0,5.333,5.333H.381A5.344,5.344,0,0,0,5.714,1.9V-16.762A5.344,5.344,0,0,0,.381-22.1Zm-14.667,24a9.345,9.345,0,0,1-9.333-9.333,9.345,9.345,0,0,1,9.333-9.333A9.345,9.345,0,0,1-4.952-7.429,9.345,9.345,0,0,1-14.286,1.9Z" transform="translate(34.286 27.429)" fill="#fff"/>
</svg>
