<svg xmlns="http://www.w3.org/2000/svg" width="40" height="37.624" viewBox="0 0 40 37.624">
  <path id="down-arrow-b" d="M40.473,5.289a3.353,3.353,0,0,0-.95-2.309L37.6,1.078A3.436,3.436,0,0,0,35.261.139a3.326,3.326,0,0,0-2.311.939L25.4,8.537V-9.324a3.29,3.29,0,0,0-3.286-3.247H18.83a3.29,3.29,0,0,0-3.286,3.247V8.537L8,1.078A3.326,3.326,0,0,0,5.685.139a3.436,3.436,0,0,0-2.336.939l-1.9,1.9A3.267,3.267,0,0,0,.473,5.289a3.166,3.166,0,0,0,.976,2.283L18.163,24.114a3.326,3.326,0,0,0,2.311.939,3.436,3.436,0,0,0,2.336-.939L39.523,7.573A3.247,3.247,0,0,0,40.473,5.289Z" transform="translate(-0.473 12.571)" fill="#ff1313"/>
</svg>
