<svg xmlns="http://www.w3.org/2000/svg" xmlns:xlink="http://www.w3.org/1999/xlink" width="80.306" height="41.7" viewBox="0 0 80.306 41.7">
  <defs>
    <clipPath id="clip-path">
      <rect id="Rectangle_1" data-name="Rectangle 1" width="34.743" height="33.1"/>
    </clipPath>
  </defs>
  <g id="WD-Logo-Hindi" transform="translate(-187.03 -139.986)">
    <g id="Group_80" data-name="Group 80" transform="translate(187.03 139.986)">
      <g id="Group_71" data-name="Group 71" transform="translate(0 0)">
        <g id="Group_4" data-name="Group 4" transform="translate(0 0)">
          <g id="Group_3" data-name="Group 3" transform="translate(2.896 4.301)" opacity="0.11">
            <g id="Group_2" data-name="Group 2">
              <g id="Group_1" data-name="Group 1" clip-path="url(#clip-path)">
                <path id="Path_1" data-name="Path 1" d="M848.5,118.551l1.28,1.074v.305l-.766.1v.36l-.257.051-.256-.514h-.974l-.252.87-.312.1.259.51.509.563-.1.256-.406.053v-.72l-.362-.509-.306.1v.565l-.82.1-.151-.1-.307.051v.357l-.561.256-.92.255-.1.46-.666.053v-.513h.409v-.409l-1.176-.459-.92.052L839.6,122.9l-.82.153-.511.921.307.153h.254v.664l.207.258,1.33-1.074-.1-.308.973-1.024.565.2-.461.31-.412.2-.2.714.667.053.153-.053.049.105-.15.153-.718-.1-.667.46-.155.561-.51.206-1.024-.1v-.409l.205-.255-.411-.206-.254.357.1.41H837.5l-.616.206-.307.258-.257-.208-1.277.46-.05.819-.413.511-.307.155-1.023-.408L833,127.4l-.152.766-.716.664.356.669.922-.053.612-.208v-.559l.818-.36.31-.357.668.1.252-.052h.46l.31.819.512.512-.156.561.156.054.254-.36-.048-.411.256.311.152-.157-.308-.409-.151-.154-.208-1.073.407.2.564.822.1.87.51,1.075.358-.1v-1.228l.976.157h.252l-.1-.669.718-.664.049-.361h.512v.718l.307.155.565-.36-.257-.357,1.075-.561.1.153-.716.355.2.412.922.77-.153.254-.717.157-.308.252-.356-.458h-.667l-.359.155h-.612l-.412.153h-.2l-.254.256.254.819h1.485l.1.254h.615l-.155.769-.3.306-.052.46-.463.1-.305-.05.412,1.124.613.258,1.328,2.711.41.665.206.92.508.256,3.737-1.124.768-2.149-.716-.31-.869-.2-.413.157-1.326-1.638h.3l1.9,1.381.507-.256,2.408-.1,1.839,1.074.82,2.61,1.076,1.331.767-.668L855,136.764l2.1-3.173,1.486,1.383.563,2.2.46,1.022,1.021,1.176.051-.307-.307-.87-.866-.92v-1.23l.254.054.869,1.176.308-1.432-.05-.921-1.026-1.179v-1.175l.667-.1.258-1.431.252.155.155-.155-.356-.716-.464-.308-.252-1.022-1.281-1.279-.155-.411-.616-.511.155-.921-.46-1.946-.972-.971-.92-.817-.765-.617-.975-.661-1.023-.563-1.072-.511-1.075-.462-1.124-.41-1.176-.3Zm-16.271,11.2-1.483,1.281-.665.2-1.431,1.894-.207,1.277-.41.872.41,2.3.717,1.687,1.688.308h1.484l.1.561.766.155.41,1.175-.358.716.667,1.078.41,1.376.46.308v1.638l-.356.561,2.094,2.61,1.485,1.892h1.282l1.329-.815.1-.41,1.074-.868-.1-1.024,1.585-1.283-.513-3.067,2.713-2.61.923-2.864-1.948.563-.356-.82-1.23-.869-1.479-3.942-.412-1.124h-.765l-.31.1-1.227-.822h-.767l-.207.717-.356.206L835.5,130.83l.1-.972-2.354-.105-.15.358-.563-.254Zm13.56,16.835-1.332,1.075-.254,1.584.254.873.717-.259.2-1.021.923-1.484-.05-.413Zm-4.911-27.834-2.1.514-1.891.662-1.38.87-.82.669.2.045,1.382-.51,2.4-.2,1.636-.612,1.79-.821-.459-.511-.561-.05Zm-3.635,2.715-.717.357v.255l.565.1.308-.206v-.359Zm4.812-1.436-.256.258.152.411h.1l.358-.31h.153v-.36Zm-5.066,3.633-.666.1-.258.561.056.359-.414.307-.257.05-.047.2.2.155.666-.206.153-.2.052-.768.41-.46Zm-1.332.512-.611.153-.156.459-.255.207.1.2.611-.153.307-.357.051-.359Zm.564,4.244-.308.259.152.151h.155v-.41Zm-.1.616-.056-.1-.2.3.049.261.208-.157Zm1.071.972h-.667l.1.256.461.153v-.255Zm4.451,1.277h-.305l-.206.155.26.153h.2l.051-.1Zm13.866,7.317-.206.46-.2.718.1.049.511-.357.1-.41-.153-.1Zm3.939.206-.613.049v.511l.768.411.254.766.767.665.208-.2-.05-.87-1.079-.919-.255-.361Zm2.66-2.2-.56,1.228-.105,2.2.665-.052.2-.1.155-1.073-.1-2.2Zm-.407,4.3-.769.361-.258.409.874-.052.2-.308Zm-.153-8.442-.105.513.306.665.359.36h.155l-.155-.511-.151-.869Zm.714,2.05.1,1.073.358.409.051-.665-.254-.766Zm-14.532,14.271-.205.256.157.1h.155v-.256Zm.718-.252-.205.307.153.1h.152v-.259Z" transform="translate(-828.03 -118.551)" fill-rule="evenodd"/>
              </g>
            </g>
          </g>
          <path id="Path_2" data-name="Path 2" d="M855.9,131.125a18.5,18.5,0,1,1-.037-13.772h2.506a20.848,20.848,0,1,0,.031,13.772Z" transform="translate(-817.862 -103.434)" fill="#a50404"/>
          <path id="Path_3" data-name="Path 3" d="M857.826,159.938l-2.3,9.545h-2.837l-1.693-6.409-1.68,6.409h-2.838l-2.315-9.545h2.178l1.581,6.944,1.767-6.944H852.3l1.779,6.944,1.568-6.944Z" transform="translate(-836.675 -143.86)" fill="#1a1a1a"/>
          <path id="Path_4" data-name="Path 4" d="M902.169,167.777v1.792h-6.3v-9.434h6.235v1.792h-4v2h3.373v1.792h-3.373v2.054Z" transform="translate(-873.67 -144.001)" fill="#1a1a1a"/>
          <path id="Path_5" data-name="Path 5" d="M929.347,165.586a2.051,2.051,0,0,1,.448,1.344,2.336,2.336,0,0,1-.858,1.985,4.819,4.819,0,0,1-2.863.653h-3.945v-9.433h3.945a4.021,4.021,0,0,1,2.582.647,2.326,2.326,0,0,1,.766,1.879,2.493,2.493,0,0,1-.311,1.295,2.068,2.068,0,0,1-1.008.821,2.615,2.615,0,0,1,1.245.809m-4.978-1.63h1.7q1.07,0,1.084-1.02a1.053,1.053,0,0,0-.255-.791,1.176,1.176,0,0,0-.828-.243h-1.7Zm2.794,2.017a1.948,1.948,0,0,0-1.089-.249h-1.7V167.8h1.7a1.924,1.924,0,0,0,1.126-.249.933.933,0,0,0,.329-.8.88.88,0,0,0-.368-.784" transform="translate(-892.456 -144.001)" fill="#1a1a1a"/>
          <path id="Path_6" data-name="Path 6" d="M989.647,168.388a3.9,3.9,0,0,1-1.026-2.9v-5.725h2.24v5.725a2.181,2.181,0,0,0,.467,1.518,2.176,2.176,0,0,0,2.8,0,2.178,2.178,0,0,0,.467-1.518v-5.725h2.24v5.725a3.923,3.923,0,0,1-1.02,2.9,5.168,5.168,0,0,1-6.167,0" transform="translate(-940.027 -143.735)" fill="#1a1a1a"/>
          <path id="Path_7" data-name="Path 7" d="M1029.273,159.763V169.2H1026.7l-3.385-5.8v5.8h-2.24v-9.434h2.576l3.385,5.8v-5.8Z" transform="translate(-963.243 -143.735)" fill="#1a1a1a"/>
          <path id="Path_8" data-name="Path 8" d="M1082,167.391h-3.646l-.66,1.916h-2.24l3.3-9.545h2.838l3.309,9.545h-2.24Zm-.647-1.916-1.182-3.435-1.17,3.435Z" transform="translate(-1004.597 -143.734)" fill="#1a1a1a"/>
          <path id="Path_9" data-name="Path 9" d="M960.767,161.335a5.615,5.615,0,0,0-3.9-1.2h-3.853a20.077,20.077,0,0,1,.024,9.432h3.829a5.659,5.659,0,0,0,3.908-1.182,5.4,5.4,0,0,0-.006-7.051M959.106,167a3.157,3.157,0,0,1-2.24.678h-.921a22.541,22.541,0,0,0-.013-5.651h.934a3.18,3.18,0,0,1,2.228.672,2.783,2.783,0,0,1,.722,2.129,2.891,2.891,0,0,1-.709,2.171" transform="translate(-914.551 -144.001)" fill="#1a1a1a"/>
        </g>
        <path id="Path_14" data-name="Path 14" d="M.324,0H2.7V9.43H.324Z" transform="translate(67.014 16.027)" fill="#1a1a1a"/>
        <circle id="Ellipse_1" data-name="Ellipse 1" cx="1.444" cy="1.444" r="1.444" transform="translate(67.044 12.353)" fill="#a50404"/>
      </g>
      <g id="Group_76" data-name="Group 76" transform="translate(41.954 27.674)">
        <path id="Path_101" data-name="Path 101" d="M348.916,1154.389h-.635v4.067h-.5v-4.067h-.69v-.445h.69a1.946,1.946,0,0,1-.166-.745,1.147,1.147,0,0,1,.073-.412.865.865,0,0,1,.222-.329,1.04,1.04,0,0,1,.383-.218,1.734,1.734,0,0,1,.554-.079,2.44,2.44,0,0,1,.81.135,3.565,3.565,0,0,1,.761.378,5.723,5.723,0,0,1,.737.575q.365.333.737.726h-.526l-.225-.213q-.141-.131-.325-.281t-.408-.3a4.052,4.052,0,0,0-.472-.277,3.053,3.053,0,0,0-.516-.2,1.935,1.935,0,0,0-.54-.077,1.152,1.152,0,0,0-.371.051.63.63,0,0,0-.242.142.518.518,0,0,0-.132.213.856.856,0,0,0-.039.262,1.837,1.837,0,0,0,.148.651h.672Z" transform="translate(-347.094 -1152.16)" fill="#1a1a1a"/>
        <path id="Path_102" data-name="Path 102" d="M358.418,1164.915a1.534,1.534,0,0,0,.2-.076.774.774,0,0,0,.176-.111.537.537,0,0,0,.126-.153.421.421,0,0,0,.048-.206.446.446,0,0,0-.209-.392,1.056,1.056,0,0,0-.593-.141,1.657,1.657,0,0,0-.316.032.863.863,0,0,0-.3.115.651.651,0,0,0-.218.227.71.71,0,0,0-.085.365.991.991,0,0,0,.088.416,1.436,1.436,0,0,0,.228.353,2.031,2.031,0,0,0,.316.29,3.6,3.6,0,0,0,.677.4q.155.068.257.107l-.2.418q-.212-.091-.431-.2a4.611,4.611,0,0,1-.426-.236,3.27,3.27,0,0,1-.387-.283,1.9,1.9,0,0,1-.316-.342,1.58,1.58,0,0,1-.212-.411,1.484,1.484,0,0,1-.077-.487,1.343,1.343,0,0,1,.068-.449,1.092,1.092,0,0,1,.189-.337,1.37,1.37,0,0,1-.245-.384,1.1,1.1,0,0,1-.079-.421.918.918,0,0,1,.032-.245.462.462,0,0,1,.115-.2.579.579,0,0,1,.232-.138,1.191,1.191,0,0,1,.384-.051h1.371v-.672h-2.741v-.445h3.943v.445h-.705v1.114h-1.74a.851.851,0,0,0-.2.019.326.326,0,0,0-.129.059.211.211,0,0,0-.068.1.437.437,0,0,0-.019.138.6.6,0,0,0,.036.206.826.826,0,0,0,.135.224,1.5,1.5,0,0,1,.386-.135,2.149,2.149,0,0,1,.44-.044,1.955,1.955,0,0,1,.5.061,1.2,1.2,0,0,1,.4.183.874.874,0,0,1,.269.312.95.95,0,0,1,.1.443.934.934,0,0,1-.083.415.945.945,0,0,1-.209.284,1.121,1.121,0,0,1-.274.186,2.841,2.841,0,0,1-.275.116Z" transform="translate(-354.329 -1159.472)" fill="#1a1a1a"/>
        <path id="Path_103" data-name="Path 103" d="M369.445,1154.956a.39.39,0,0,1,.1-.28.372.372,0,0,1,.408-.078.379.379,0,0,1,.2.207.411.411,0,0,1,.029.156.386.386,0,0,1-.1.278.349.349,0,0,1-.265.106.374.374,0,0,1-.147-.029.345.345,0,0,1-.118-.082.389.389,0,0,1-.079-.124A.414.414,0,0,1,369.445,1154.956Z" transform="translate(-365.063 -1154.094)" fill="#1a1a1a"/>
        <path id="Path_104" data-name="Path 104" d="M379.953,1161.691h-1.026v1.328h-1.02a.991.991,0,0,0-.717.234.9.9,0,0,0-.242.673,1.123,1.123,0,0,0,.08.439.9.9,0,0,0,.221.319.939.939,0,0,0,.334.2,1.285,1.285,0,0,0,.421.067.863.863,0,0,0,.384-.073c-.008-.05-.014-.095-.018-.133a1.082,1.082,0,0,1-.006-.115,1.141,1.141,0,0,1,.032-.262.882.882,0,0,1,.1-.245.562.562,0,0,1,.166-.18.42.42,0,0,1,.243-.07.462.462,0,0,1,.166.03.372.372,0,0,1,.138.092.449.449,0,0,1,.094.156.626.626,0,0,1,.035.218.742.742,0,0,1-.033.228.93.93,0,0,1-.086.194,1.2,1.2,0,0,1-.12.166q-.066.077-.13.141a2.111,2.111,0,0,0,.141.26,1.7,1.7,0,0,0,.155.206,1.988,1.988,0,0,0,.162.163q.082.073.164.135l-.372.39a2.389,2.389,0,0,1-.274-.283,2.69,2.69,0,0,1-.191-.265,2.538,2.538,0,0,1-.126-.224q-.048-.1-.079-.16a1.424,1.424,0,0,1-.514.082,1.7,1.7,0,0,1-.687-.128,1.408,1.408,0,0,1-.489-.345,1.431,1.431,0,0,1-.292-.495,1.743,1.743,0,0,1-.1-.578,1.407,1.407,0,0,1,.1-.549,1.112,1.112,0,0,1,.278-.4,1.2,1.2,0,0,1,.426-.245,1.688,1.688,0,0,1,.54-.083h.619v-.887h-2.548v-.445h4.07Z" transform="translate(-370.239 -1159.462)" fill="#1a1a1a"/>
        <path id="Path_105" data-name="Path 105" d="M392.467,1154.381h-.636v4.067h-.5v-4.067h-.69v-.445h.738a2.878,2.878,0,0,0-.139-.528,1.838,1.838,0,0,0-.185-.366,1.01,1.01,0,0,0-.209-.232.935.935,0,0,0-.21-.127.769.769,0,0,0-.191-.054,1.156,1.156,0,0,0-.147-.012.657.657,0,0,0-.3.058.5.5,0,0,0-.174.141.448.448,0,0,0-.08.171.727.727,0,0,0-.019.153c0,.016,0,.049.008.1a.817.817,0,0,0,.048.186,1.459,1.459,0,0,0,.126.252,1.6,1.6,0,0,0,.239.293h-.514a1.6,1.6,0,0,1-.286-.452,1.2,1.2,0,0,1-.1-.455.936.936,0,0,1,.066-.351.784.784,0,0,1,.2-.289.981.981,0,0,1,.333-.2,1.353,1.353,0,0,1,.463-.073,1.309,1.309,0,0,1,.626.141,1.324,1.324,0,0,1,.443.383,1.934,1.934,0,0,1,.284.568,3.615,3.615,0,0,1,.147.691h.651Z" transform="translate(-380.988 -1152.152)" fill="#1a1a1a"/>
      </g>
    </g>
  </g>
</svg>
