<svg xmlns="http://www.w3.org/2000/svg" width="40.001" height="40.001" viewBox="0 0 40.001 40.001">
  <path id="instaicon" d="M26.666,1.928a6.666,6.666,0,1,1-13.333,0,6.666,6.666,0,1,1,13.333,0Zm3.594,0a10.26,10.26,0,1,0-20.52,0,10.26,10.26,0,1,0,20.52,0ZM33.072-8.748a2.389,2.389,0,0,0-2.4-2.4,2.389,2.389,0,0,0-2.4,2.4,2.389,2.389,0,0,0,2.4,2.4A2.389,2.389,0,0,0,33.072-8.748ZM20-14.477c2.916,0,9.166-.234,11.8.807a6.394,6.394,0,0,1,2.292,1.51A6.394,6.394,0,0,1,35.6-9.868c1.042,2.63.807,8.88.807,11.8s.234,9.166-.807,11.8a6.394,6.394,0,0,1-1.51,2.292,6.394,6.394,0,0,1-2.292,1.51c-2.63,1.042-8.88.807-11.8.807s-9.166.234-11.8-.807a6.394,6.394,0,0,1-2.292-1.51A6.394,6.394,0,0,1,4.4,13.724c-1.042-2.63-.807-8.88-.807-11.8S3.36-7.238,4.4-9.868a6.394,6.394,0,0,1,1.51-2.292A6.394,6.394,0,0,1,8.2-13.67C10.833-14.711,17.083-14.477,20-14.477ZM40,1.928c0-2.76.026-5.494-.13-8.255-.156-3.2-.885-6.041-3.229-8.385s-5.182-3.073-8.385-3.229c-2.76-.156-5.494-.13-8.255-.13s-5.494-.026-8.255.13c-3.2.156-6.041.885-8.385,3.229S.287-9.529.131-6.327C-.025-3.566,0-.832,0,1.928s-.026,5.494.13,8.255c.156,3.2.885,6.041,3.229,8.385s5.182,3.073,8.385,3.229c2.76.156,5.494.13,8.255.13s5.494.026,8.255-.13c3.2-.156,6.041-.885,8.385-3.229s3.073-5.182,3.229-8.385C40.024,7.423,40,4.688,40,1.928Z" transform="translate(0.001 18.072)" fill="#fc3c68"/>
</svg>
