<svg xmlns="http://www.w3.org/2000/svg" width="36.32" height="40" viewBox="0 0 36.32 40">
  <g id="playstore" transform="translate(-23.549 0)">
    <g id="Group_626" data-name="Group 626" transform="translate(23.549 0.001)">
      <path id="Path_207" data-name="Path 207" d="M74.088,13.732c-4.647-2.6-12.1-6.772-23.673-13.25a2.789,2.789,0,0,0-2.453-.32L67.81,20.01Z" transform="translate(-46.055 -0.012)" fill="#32bbff"/>
      <path id="Path_208" data-name="Path 208" d="M25.456,1.93a2.852,2.852,0,0,0-.422.18,2.791,2.791,0,0,0-1.485,2.481V38.964a2.791,2.791,0,0,0,1.485,2.481,2.886,2.886,0,0,0,.421.181L45.3,21.778Z" transform="translate(-23.549 -1.78)" fill="#32bbff"/>
      <path id="Path_209" data-name="Path 209" d="M67.8,255.98,47.956,275.828a2.76,2.76,0,0,0,2.453-.321C61.628,269.225,69,265.1,73.7,262.48l.386-.217Z" transform="translate(-46.049 -235.982)" fill="#32bbff"/>
    </g>
    <path id="Path_210" data-name="Path 210" d="M23.549,255.98v17.186a2.791,2.791,0,0,0,1.485,2.481,2.882,2.882,0,0,0,.421.181L45.3,255.98Z" transform="translate(0 -235.981)" fill="#2c9fd9"/>
    <path id="Path_211" data-name="Path 211" d="M45.436.471a2.8,2.8,0,0,0-2.875-.14L62.529,20.3l6.579-6.579C64.462,11.122,57,6.948,45.436.471Z" transform="translate(-17.527 0)" fill="#29cc5e"/>
    <path id="Path_212" data-name="Path 212" d="M62.53,252.126,42.561,272.094a2.779,2.779,0,0,0,2.875-.14c11.219-6.282,18.593-10.406,23.293-13.027l.386-.217Z" transform="translate(-17.527 -232.429)" fill="#d93f21"/>
    <path id="Path_213" data-name="Path 213" d="M309.471,179.351a2.784,2.784,0,0,0-1.433-2.446s-1.781-.994-7.241-4.048l-6.494,6.494,6.5,6.5c5.4-3.032,7.234-4.054,7.234-4.054A2.783,2.783,0,0,0,309.471,179.351Z" transform="translate(-249.601 -159.352)" fill="#ffd500"/>
    <path id="Path_214" data-name="Path 214" d="M308.038,258.426a2.783,2.783,0,0,0,1.433-2.446H294.3l6.5,6.5C306.2,259.449,308.038,258.426,308.038,258.426Z" transform="translate(-249.601 -235.981)" fill="#fa0"/>
  </g>
</svg>
