<svg xmlns="http://www.w3.org/2000/svg" viewBox="0 0 40 40" xmlns:xlink="http://www.w3.org/1999/xlink">
<defs>
	<style>
		<![CDATA[
			.sprite { display: none; }
			.sprite:target { display: inline; }
		]]>
    
		
	</style>

</defs>
<title>SVG Sprite</title>

<g id="facebook" class="sprite">
<path  d="M21.84-19.426a46.438,46.438,0,0,0-5.442-.288c-5.394,0-9.093,3.317-9.093,9.4v5.24H1.219V2.041H7.305V20.286h7.3V2.041h6.062L21.6-5.075H14.609V-9.618c0-2.043.549-3.462,3.485-3.462H21.84Z" transform="translate(-1.219 19.714)" fill="#fff"/>
</g>

<g id="twitter" class="sprite">
<path id="" d="M40.565-12.625a16.622,16.622,0,0,1-4.721,1.251,8.082,8.082,0,0,0,3.6-4.454,16.28,16.28,0,0,1-5.2,1.952,8.233,8.233,0,0,0-5.99-2.552,8.137,8.137,0,0,0-8.2,8.082,9,9,0,0,0,.2,1.852,23.414,23.414,0,0,1-16.9-8.458A7.936,7.936,0,0,0,2.24-10.874,8.047,8.047,0,0,0,5.895-4.143,8.346,8.346,0,0,1,2.189-5.169v.1A8.113,8.113,0,0,0,8.763,2.864a8.784,8.784,0,0,1-2.157.275,10.476,10.476,0,0,1-1.548-.125,8.2,8.2,0,0,0,7.665,5.605A16.568,16.568,0,0,1,2.544,12.072a17.189,17.189,0,0,1-1.98-.1A23.408,23.408,0,0,0,13.154,15.6a22.992,22.992,0,0,0,23.325-23c0-.35,0-.7-.025-1.051A17.491,17.491,0,0,0,40.565-12.625Z" transform="translate(-0.565 16.429)" fill="#fff"/>
</g>

<g id="instagram" class="sprite">
<path id="insta" d="M26.666,1.928a6.666,6.666,0,1,1-13.333,0,6.666,6.666,0,1,1,13.333,0Zm3.594,0a10.26,10.26,0,1,0-20.52,0,10.26,10.26,0,1,0,20.52,0ZM33.072-8.748a2.389,2.389,0,0,0-2.4-2.4,2.389,2.389,0,0,0-2.4,2.4,2.389,2.389,0,0,0,2.4,2.4A2.389,2.389,0,0,0,33.072-8.748ZM20-14.477c2.916,0,9.166-.234,11.8.807a6.394,6.394,0,0,1,2.292,1.51A6.394,6.394,0,0,1,35.6-9.868c1.042,2.63.807,8.88.807,11.8s.234,9.166-.807,11.8a6.394,6.394,0,0,1-1.51,2.292,6.394,6.394,0,0,1-2.292,1.51c-2.63,1.042-8.88.807-11.8.807s-9.166.234-11.8-.807a6.394,6.394,0,0,1-2.292-1.51A6.394,6.394,0,0,1,4.4,13.724c-1.042-2.63-.807-8.88-.807-11.8S3.36-7.238,4.4-9.868a6.394,6.394,0,0,1,1.51-2.292A6.394,6.394,0,0,1,8.2-13.67C10.833-14.711,17.083-14.477,20-14.477ZM40,1.928c0-2.76.026-5.494-.13-8.255-.156-3.2-.885-6.041-3.229-8.385s-5.182-3.073-8.385-3.229c-2.76-.156-5.494-.13-8.255-.13s-5.494-.026-8.255.13c-3.2.156-6.041.885-8.385,3.229S.287-9.529.131-6.327C-.025-3.566,0-.832,0,1.928s-.026,5.494.13,8.255c.156,3.2.885,6.041,3.229,8.385s5.182,3.073,8.385,3.229c2.76.156,5.494.13,8.255.13s5.494.026,8.255-.13c3.2-.156,6.041-.885,8.385-3.229s3.073-5.182,3.229-8.385C40.024,7.423,40,4.688,40,1.928Z" transform="translate(0.001 18.072)" fill="#fff"/>
</g>

<g id="youtube" class="sprite">
<path id="youtube" d="M15.871,2.941V-8.287l10.8,5.647ZM20-16.3h0c-8.415,0-14,.4-14,.4a5.66,5.66,0,0,0-4.018,1.7A7.021,7.021,0,0,0,.4-10.229,54.065,54.065,0,0,0,0-3.756V-.72A54.065,54.065,0,0,0,.4,5.753,7.13,7.13,0,0,0,1.987,9.726c1.518,1.585,3.527,1.54,4.42,1.7,0,0,3.192.312,13.594.4h0c8.415,0,14-.424,14-.424a5.712,5.712,0,0,0,4.018-1.674A7.13,7.13,0,0,0,39.6,5.753,54.065,54.065,0,0,0,40-.72V-3.756a54.065,54.065,0,0,0-.4-6.473A7.021,7.021,0,0,0,38.013-14.2,5.66,5.66,0,0,0,34-15.9S28.415-16.3,20-16.3Z" transform="translate(0 16.3)" fill="#fff"/>
</g>

<g id="down-arrow" class="sprite">
<path  d="M40.773-5.524a1.393,1.393,0,0,0-.4-.927l-2-2.015a1.377,1.377,0,0,0-.922-.4,1.377,1.377,0,0,0-.922.4L20.773,7.374,5.022-8.466a1.377,1.377,0,0,0-.922-.4,1.3,1.3,0,0,0-.922.4l-2,2.015a1.393,1.393,0,0,0-.4.927,1.393,1.393,0,0,0,.4.927L19.852,14.186a1.256,1.256,0,0,0,1.844,0L40.373-4.6A1.393,1.393,0,0,0,40.773-5.524Z" transform="translate(-0.773 8.869)" fill="#a50404"/>
</g>

<g id="up-arrow" class="sprite">
<path  d="M40.773,11.244a1.393,1.393,0,0,1-.4.927l-2,2.015a1.256,1.256,0,0,1-1.844,0L20.773-1.654,5.022,14.186a1.377,1.377,0,0,1-.922.4,1.3,1.3,0,0,1-.922-.4l-2-2.015a1.273,1.273,0,0,1,0-1.854L19.852-8.466a1.377,1.377,0,0,1,.922-.4,1.377,1.377,0,0,1,.922.4L40.373,10.317A1.393,1.393,0,0,1,40.773,11.244Z" transform="translate(-0.773 8.869)" fill="#a50404"/>
</g>

<g id="left-arrow" class="sprite">
<path id="" d="M40.773,11.244a1.393,1.393,0,0,1-.4.927l-2,2.015a1.256,1.256,0,0,1-1.844,0L20.773-1.654,5.022,14.186a1.377,1.377,0,0,1-.922.4,1.3,1.3,0,0,1-.922-.4l-2-2.015a1.273,1.273,0,0,1,0-1.854L19.852-8.466a1.377,1.377,0,0,1,.922-.4,1.377,1.377,0,0,1,.922.4L40.373,10.317A1.393,1.393,0,0,1,40.773,11.244Z" transform="translate(8.869 40.773) rotate(-90)" fill="#a50404"/>
</g>

<g id="right-arrow" class="sprite">
<path id="" d="M40,3.345a1.393,1.393,0,0,0-.4-.927L37.6.4a1.256,1.256,0,0,0-1.844,0L20,16.244,4.248.4A1.377,1.377,0,0,0,3.327,0,1.3,1.3,0,0,0,2.4.4L.4,2.418a1.393,1.393,0,0,0-.4.927,1.393,1.393,0,0,0,.4.927L19.078,23.056a1.256,1.256,0,0,0,1.844,0L39.6,4.273A1.393,1.393,0,0,0,40,3.345Z" transform="translate(0 40) rotate(-90)" fill="#a50404"/>
</g>

<g id="down-arrow-w" class="sprite">
<path  d="M40.773-5.524a1.393,1.393,0,0,0-.4-.927l-2-2.015a1.377,1.377,0,0,0-.922-.4,1.377,1.377,0,0,0-.922.4L20.773,7.374,5.022-8.466a1.377,1.377,0,0,0-.922-.4,1.3,1.3,0,0,0-.922.4l-2,2.015a1.393,1.393,0,0,0-.4.927,1.393,1.393,0,0,0,.4.927L19.852,14.186a1.256,1.256,0,0,0,1.844,0L40.373-4.6A1.393,1.393,0,0,0,40.773-5.524Z" transform="translate(-0.773 8.869)" fill="#fff"/>
</g>

<g id="up-arrow-w" class="sprite">
<path  d="M40.773,11.244a1.393,1.393,0,0,1-.4.927l-2,2.015a1.256,1.256,0,0,1-1.844,0L20.773-1.654,5.022,14.186a1.377,1.377,0,0,1-.922.4,1.3,1.3,0,0,1-.922-.4l-2-2.015a1.273,1.273,0,0,1,0-1.854L19.852-8.466a1.377,1.377,0,0,1,.922-.4,1.377,1.377,0,0,1,.922.4L40.373,10.317A1.393,1.393,0,0,1,40.773,11.244Z" transform="translate(-0.773 8.869)" fill="#fff"/>
</g>

<g id="left-arrow-w" class="sprite">
<path id="" d="M40.773,11.244a1.393,1.393,0,0,1-.4.927l-2,2.015a1.256,1.256,0,0,1-1.844,0L20.773-1.654,5.022,14.186a1.377,1.377,0,0,1-.922.4,1.3,1.3,0,0,1-.922-.4l-2-2.015a1.273,1.273,0,0,1,0-1.854L19.852-8.466a1.377,1.377,0,0,1,.922-.4,1.377,1.377,0,0,1,.922.4L40.373,10.317A1.393,1.393,0,0,1,40.773,11.244Z" transform="translate(8.869 40.773) rotate(-90)" fill="#fff"/>
</g>

<g id="right-arrow-w" class="sprite">
<path id="" d="M40,3.345a1.393,1.393,0,0,0-.4-.927L37.6.4a1.256,1.256,0,0,0-1.844,0L20,16.244,4.248.4A1.377,1.377,0,0,0,3.327,0,1.3,1.3,0,0,0,2.4.4L.4,2.418a1.393,1.393,0,0,0-.4.927,1.393,1.393,0,0,0,.4.927L19.078,23.056a1.256,1.256,0,0,0,1.844,0L39.6,4.273A1.393,1.393,0,0,0,40,3.345Z" transform="translate(0 40) rotate(-90)" fill="#fff"/>
</g>




<g id="down-arrow-b" class="sprite">
<path id="down-arrow-b" d="M40.473,5.289a3.353,3.353,0,0,0-.95-2.309L37.6,1.078A3.436,3.436,0,0,0,35.261.139a3.326,3.326,0,0,0-2.311.939L25.4,8.537V-9.324a3.29,3.29,0,0,0-3.286-3.247H18.83a3.29,3.29,0,0,0-3.286,3.247V8.537L8,1.078A3.326,3.326,0,0,0,5.685.139a3.436,3.436,0,0,0-2.336.939l-1.9,1.9A3.267,3.267,0,0,0,.473,5.289a3.166,3.166,0,0,0,.976,2.283L18.163,24.114a3.326,3.326,0,0,0,2.311.939,3.436,3.436,0,0,0,2.336-.939L39.523,7.573A3.247,3.247,0,0,0,40.473,5.289Z" transform="translate(-0.473 12.571)" fill="#ff1313"/>
</g>

<g id="up-arrow-b" class="sprite">
<path id="up-arrow-b" d="M40.473,7.763a3.353,3.353,0,0,0-.95-2.309L22.81-11.061A3.322,3.322,0,0,0,20.473-12a3.218,3.218,0,0,0-2.311.939L1.449,5.455A3.267,3.267,0,0,0,.473,7.763a3.209,3.209,0,0,0,.976,2.283l1.926,1.9a3.251,3.251,0,0,0,4.621,0l7.548-7.433V22.377a3.061,3.061,0,0,0,3.286,2.968h3.286A3.061,3.061,0,0,0,25.4,22.377V4.516l7.548,7.433a3.241,3.241,0,0,0,2.311.964,3.346,3.346,0,0,0,2.336-.964l1.926-1.9A3.293,3.293,0,0,0,40.473,7.763Z" transform="translate(-0.473 12)" fill="#49cc1a"/>
</g>

<g id="time" class="sprite">
<path id="" d="M23.333-1.738a.823.823,0,0,0-.833-.833H20.833A.823.823,0,0,0,20-1.738V7.429H14.167a.823.823,0,0,0-.833.833V9.929a.823.823,0,0,0,.833.833H22.5a.823.823,0,0,0,.833-.833ZM34.167,7.429A14.167,14.167,0,1,1,20-6.738,14.181,14.181,0,0,1,34.167,7.429Zm5.833,0a20,20,0,1,0-20,20A20.005,20.005,0,0,0,40,7.429Z" transform="translate(0 12.571)"/>
</g>

<g id="video" class="sprite">
<path id="video" d="M40-12.155a1.438,1.438,0,0,0-.871-1.31,1.664,1.664,0,0,0-.558-.111,1.337,1.337,0,0,0-1,.422l-9,8.922V-7.894a6.412,6.412,0,0,0-6.429-6.392H6.429A6.412,6.412,0,0,0,0-7.894V7.732a6.412,6.412,0,0,0,6.429,6.392H22.143a6.412,6.412,0,0,0,6.429-6.392V4.047l9,8.945a1.337,1.337,0,0,0,1,.422,1.664,1.664,0,0,0,.558-.111A1.438,1.438,0,0,0,40,11.993Z" transform="translate(0 14.286)" fill="#fff"/>
</g>


<g id="search" class="sprite">
<path id="" d="M50.51,48.159l-9.616-9.616A16.843,16.843,0,1,0,38.535,40.9l9.616,9.608a1.665,1.665,0,0,0,2.359-2.351Zm-22.653-6.8a13.506,13.506,0,1,1,13.51-13.5A13.519,13.519,0,0,1,27.857,41.359Z" transform="translate(-11 -11)" fill="#fff"/>
</g>

<g id="bar" class="sprite">
<path id="" d="M-1540.5,32a1.5,1.5,0,0,1-1.5-1.5,1.5,1.5,0,0,1,1.5-1.5h37a1.5,1.5,0,0,1,1.5,1.5,1.5,1.5,0,0,1-1.5,1.5Zm9-14a1.5,1.5,0,0,1-1.5-1.5,1.5,1.5,0,0,1,1.5-1.5h28a1.5,1.5,0,0,1,1.5,1.5,1.5,1.5,0,0,1-1.5,1.5Zm-9-15a1.5,1.5,0,0,1-1.5-1.5,1.5,1.5,0,0,1,1.5-1.5h37a1.5,1.5,0,0,1,1.5,1.5,1.5,1.5,0,0,1-1.5,1.5Z" transform="translate(1542)" fill="#ae180e"/>
</g>


</svg>