<svg xmlns="http://www.w3.org/2000/svg" width="40" height="37.345" viewBox="0 0 40 37.345">
  <path id="up-arrow-b" d="M40.473,7.763a3.353,3.353,0,0,0-.95-2.309L22.81-11.061A3.322,3.322,0,0,0,20.473-12a3.218,3.218,0,0,0-2.311.939L1.449,5.455A3.267,3.267,0,0,0,.473,7.763a3.209,3.209,0,0,0,.976,2.283l1.926,1.9a3.251,3.251,0,0,0,4.621,0l7.548-7.433V22.377a3.061,3.061,0,0,0,3.286,2.968h3.286A3.061,3.061,0,0,0,25.4,22.377V4.516l7.548,7.433a3.241,3.241,0,0,0,2.311.964,3.346,3.346,0,0,0,2.336-.964l1.926-1.9A3.293,3.293,0,0,0,40.473,7.763Z" transform="translate(-0.473 12)" fill="#49cc1a"/>
</svg>
