<svg xmlns="http://www.w3.org/2000/svg" width="40" height="28.41" viewBox="0 0 40 28.41">
  <path id="video" d="M40-12.155a1.438,1.438,0,0,0-.871-1.31,1.664,1.664,0,0,0-.558-.111,1.337,1.337,0,0,0-1,.422l-9,8.922V-7.894a6.412,6.412,0,0,0-6.429-6.392H6.429A6.412,6.412,0,0,0,0-7.894V7.732a6.412,6.412,0,0,0,6.429,6.392H22.143a6.412,6.412,0,0,0,6.429-6.392V4.047l9,8.945a1.337,1.337,0,0,0,1,.422,1.664,1.664,0,0,0,.558-.111A1.438,1.438,0,0,0,40,11.993Z" transform="translate(0 14.286)" fill="#fff"/>
</svg>
