<svg xmlns="http://www.w3.org/2000/svg" width="40" height="28.125" viewBox="0 0 40 28.125">
  <path id="youtube" d="M15.871,2.941V-8.287l10.8,5.647ZM20-16.3h0c-8.415,0-14,.4-14,.4a5.66,5.66,0,0,0-4.018,1.7A7.021,7.021,0,0,0,.4-10.229,54.065,54.065,0,0,0,0-3.756V-.72A54.065,54.065,0,0,0,.4,5.753,7.13,7.13,0,0,0,1.987,9.726c1.518,1.585,3.527,1.54,4.42,1.7,0,0,3.192.312,13.594.4h0c8.415,0,14-.424,14-.424a5.712,5.712,0,0,0,4.018-1.674A7.13,7.13,0,0,0,39.6,5.753,54.065,54.065,0,0,0,40-.72V-3.756a54.065,54.065,0,0,0-.4-6.473A7.021,7.021,0,0,0,38.013-14.2,5.66,5.66,0,0,0,34-15.9S28.415-16.3,20-16.3Z" transform="translate(0 16.3)" fill="#fff"/>
</svg>
