<svg xmlns="http://www.w3.org/2000/svg" width="33.486" height="40" viewBox="0 0 33.486 40">
  <path id="apple" d="M33.486,7.778a7.34,7.34,0,0,1-3.8-3.029A9.189,9.189,0,0,1,28.029-.611a8.545,8.545,0,0,1,1.562-4.976,15.382,15.382,0,0,1,2.74-2.837,12.22,12.22,0,0,0-2.5-2.4,8.775,8.775,0,0,0-5.12-1.563,13.58,13.58,0,0,0-4.159.817,12.04,12.04,0,0,1-3.438.817,15.288,15.288,0,0,1-3.317-.721A15.846,15.846,0,0,0,9.543-12.2,8.3,8.3,0,0,0,2.716-8.736,14.248,14.248,0,0,0,0,.254,24.569,24.569,0,0,0,3.534,12.345c2.38,4.135,4.76,6.226,7.236,6.226a8.752,8.752,0,0,0,3.173-.817,9.325,9.325,0,0,1,3.413-.793,10.688,10.688,0,0,1,3.63.769,11.051,11.051,0,0,0,3.365.769c2.043,0,4.111-1.562,6.178-4.712A23.889,23.889,0,0,0,33.486,7.778Zm-9.038-28.2c0-.168-.024-.312-.024-.481-.024-.144-.072-.313-.12-.529-2.788.649-4.808,1.827-6.01,3.558a10.98,10.98,0,0,0-1.875,6.178,12.7,12.7,0,0,0,2.5-.409,6.811,6.811,0,0,0,2.6-1.731A9.865,9.865,0,0,0,23.75-17.15,9.2,9.2,0,0,0,24.447-20.419Z" transform="translate(0 21.429)" fill="#333"/>
</svg>
