<svg xmlns="http://www.w3.org/2000/svg" width="40" height="31.429" viewBox="0 0 40 31.429">
  <path id="email" d="M37.143,12.143a.734.734,0,0,1-.714.714H3.571a.734.734,0,0,1-.714-.714V-5A12.018,12.018,0,0,0,4.4-3.527C7.589-1.071,10.8,1.429,13.906,4.018c1.674,1.406,3.75,3.125,6.071,3.125h.045c2.321,0,4.4-1.719,6.071-3.125,3.1-2.589,6.317-5.089,9.509-7.545A12.018,12.018,0,0,0,37.143-5Zm0-23.46c0,1.9-1.83,4.375-3.281,5.513q-4.487,3.516-8.951,7.076c-1.183.96-3.326,3.013-4.888,3.013h-.045c-1.562,0-3.705-2.054-4.888-3.013Q10.636-2.277,6.138-5.8a8.049,8.049,0,0,1-3.281-6.339.734.734,0,0,1,.714-.714H36.429C37.277-12.857,37.143-11.875,37.143-11.317ZM40-12.143a3.582,3.582,0,0,0-3.571-3.571H3.571A3.582,3.582,0,0,0,0-12.143V12.143a3.582,3.582,0,0,0,3.571,3.571H36.429A3.582,3.582,0,0,0,40,12.143Z" transform="translate(0 15.714)" fill="#383838"/>
</svg>
