<svg xmlns="http://www.w3.org/2000/svg" width="40" height="32.029" viewBox="0 0 40 32.029">
  <path id="twitter" d="M40.565-12.625a16.622,16.622,0,0,1-4.721,1.251,8.082,8.082,0,0,0,3.6-4.454,16.28,16.28,0,0,1-5.2,1.952,8.233,8.233,0,0,0-5.99-2.552,8.137,8.137,0,0,0-8.2,8.082,9,9,0,0,0,.2,1.852,23.414,23.414,0,0,1-16.9-8.458A7.936,7.936,0,0,0,2.24-10.874,8.047,8.047,0,0,0,5.895-4.143,8.346,8.346,0,0,1,2.189-5.169v.1A8.113,8.113,0,0,0,8.763,2.864a8.784,8.784,0,0,1-2.157.275,10.476,10.476,0,0,1-1.548-.125,8.2,8.2,0,0,0,7.665,5.605A16.568,16.568,0,0,1,2.544,12.072a17.189,17.189,0,0,1-1.98-.1A23.408,23.408,0,0,0,13.154,15.6a22.992,22.992,0,0,0,23.325-23c0-.35,0-.7-.025-1.051A17.491,17.491,0,0,0,40.565-12.625Z" transform="translate(-0.565 16.429)" fill="#fff"/>
</svg>
