<svg xmlns="http://www.w3.org/2000/svg" width="39.69" height="40" viewBox="0 0 39.69 40">
  <path id="whatsapp" d="M25.452,2.289c-.672,0-1.964,2.506-2.739,2.506a1.136,1.136,0,0,1-.568-.181A15.164,15.164,0,0,1,18.243,2a13.044,13.044,0,0,1-2.636-3.54.769.769,0,0,1-.129-.388c0-.594,1.783-1.705,1.783-2.687,0-.258-1.318-3.773-1.5-4.212-.258-.672-.388-.879-1.085-.879-.336,0-.646-.078-.956-.078a1.877,1.877,0,0,0-1.344.568,5.43,5.43,0,0,0-1.912,4.083v.207A9.144,9.144,0,0,0,12.3.093c2.222,3.282,4.522,6.15,8.217,7.829a16.829,16.829,0,0,0,4.91,1.6c1.473,0,3.876-.93,4.47-2.377a5.711,5.711,0,0,0,.439-1.964,1.071,1.071,0,0,0-.052-.388A25.124,25.124,0,0,0,25.452,2.289Zm-5.245,13.7A16.333,16.333,0,0,1,11.292,13.3l-6.253,1.99L7.08,9.266a16.152,16.152,0,0,1-3.1-9.509A16.255,16.255,0,0,1,20.207-16.471,16.255,16.255,0,0,1,36.434-.243,16.255,16.255,0,0,1,20.207,15.984Zm0-35.711A19.5,19.5,0,0,0,.724-.243,19.389,19.389,0,0,0,3.514,9.808L0,20.273l10.775-3.463a19.493,19.493,0,0,0,9.432,2.429A19.5,19.5,0,0,0,39.69-.243,19.5,19.5,0,0,0,20.207-19.727Z" transform="translate(0 19.727)" fill="#2cb742"/>
</svg>
